<?xml version="1.0" encoding="utf-8"?>
<!-- Generator: Adobe Illustrator 18.1.1, SVG Export Plug-In . SVG Version: 6.00 Build 0)  -->
<svg version="1.1" id="Layer_1" xmlns="http://www.w3.org/2000/svg" xmlns:xlink="http://www.w3.org/1999/xlink" x="0px" y="0px"
	 viewBox="0 0 200 200" enable-background="new 0 0 200 200" xml:space="preserve">
<g>
	<g>
		<defs>
			<path id="SVGID_193_" d="M32.7,105C32.7,105,32.7,105.9,32.7,105L32.7,105z M36.2,101.7c0,0-0.1,0.5-0.2,1.4
				c-1,0.1-1.4,0.2-1.4,0.2c-1.1,0.1-2,0.9-2,1.7c0,0.7,0.9,1.7,2,1.8c0,0,0.5,0.1,1.4,0.2c0.1,1,0.2,1.4,0.2,1.4
				c0.1,1.1,0.9,2,1.8,2c0.6,0,1.6-0.9,1.7-2c0,0,0.1-0.4,0.2-1.4c1-0.1,1.4-0.2,1.4-0.2c1.1-0.1,2-1,2-1.8c0-0.6-0.9-1.6-2-1.7
				c0,0-0.4-0.1-1.4-0.2c-0.1-1-0.2-1.4-0.2-1.4c-0.1-1.1-0.9-2-1.7-2C37.4,99.8,36.4,100.6,36.2,101.7z"/>
		</defs>
		<clipPath id="SVGID_2_">
			<use xlink:href="#SVGID_193_"  overflow="visible"/>
		</clipPath>
		<g clip-path="url(#SVGID_2_)">
			<defs>
				<rect id="SVGID_195_" x="-145.9" y="-192.6" width="489.5" height="870.3"/>
			</defs>
			<clipPath id="SVGID_4_">
				<use xlink:href="#SVGID_195_"  overflow="visible"/>
			</clipPath>
			<g clip-path="url(#SVGID_4_)" enable-background="new    ">
				<g>
					<defs>
						<rect id="SVGID_197_" x="23.9" y="90.9" width="27.9" height="28.6"/>
					</defs>
					<clipPath id="SVGID_6_">
						<use xlink:href="#SVGID_197_"  overflow="visible"/>
					</clipPath>
					<g clip-path="url(#SVGID_6_)">
						<defs>
							<rect id="SVGID_199_" x="24.3" y="91.4" width="27.4" height="27.4"/>
						</defs>
						<clipPath id="SVGID_8_">
							<use xlink:href="#SVGID_199_"  overflow="visible"/>
						</clipPath>
						<g clip-path="url(#SVGID_8_)">
							<defs>
								<rect id="SVGID_201_" x="32" y="99.7" width="11.6" height="10.9"/>
							</defs>
							<clipPath id="SVGID_10_">
								<use xlink:href="#SVGID_201_"  overflow="visible"/>
							</clipPath>
							<rect x="20.9" y="88" clip-path="url(#SVGID_10_)" fill="#F5DFDD" width="34.2" height="34.2"/>
						</g>
					</g>
				</g>
			</g>
		</g>
	</g>
	<g>
		<defs>
			<path id="SVGID_203_" d="M145,35.2C145,35.2,145,35.2,145,35.2C145,35.2,145,35.2,145,35.2z M145,35.2
				C145,35.2,145,35.2,145,35.2L145,35.2z M138.3,33L138.3,33L138.3,33z M138.3,33C138.3,33,138.3,33,138.3,33
				C138.3,33,138.3,33,138.3,33z M138.3,33C138.3,33,138.3,33,138.3,33C138.3,33,138.3,33,138.3,33z M138.3,33L138.3,33L138.3,33z
				 M138.3,33C138.3,33,138.3,33,138.3,33C138.3,33,138.3,33,138.3,33z M138.3,33C138.3,33,138.3,33,138.3,33
				C138.3,33,138.3,33,138.3,33z M138.3,33C138.3,33,138.3,33,138.3,33C138.3,33,138.3,33,138.3,33z M138.3,33
				C138.3,33,138.3,33,138.3,33C138.3,33,138.3,33,138.3,33z M138.3,32.9C138.3,32.9,138.3,32.9,138.3,32.9
				C138.3,32.9,138.3,32.9,138.3,32.9z M138.3,32.9C138.3,32.9,138.3,32.9,138.3,32.9C138.3,32.9,138.3,32.9,138.3,32.9z
				 M138.3,32.9c0,0,0-0.1-0.1-0.1C138.2,32.8,138.2,32.9,138.3,32.9z M138.2,32.8C138.2,32.8,138.2,32.8,138.2,32.8
				C138.2,32.8,138.2,32.8,138.2,32.8z M138.2,32.8C138.2,32.8,138.2,32.8,138.2,32.8C138.2,32.8,138.2,32.8,138.2,32.8z
				 M138.2,32.8C138.2,32.8,138.2,32.8,138.2,32.8C138.2,32.8,138.2,32.8,138.2,32.8z M138.2,32.8C138.2,32.8,138.2,32.8,138.2,32.8
				C138.2,32.8,138.2,32.8,138.2,32.8z M138.2,32.8C138.2,32.8,138.2,32.8,138.2,32.8C138.2,32.8,138.2,32.8,138.2,32.8z
				 M138.2,32.8C138.2,32.8,138.2,32.8,138.2,32.8C138.2,32.8,138.2,32.8,138.2,32.8z M138.2,32.8C138.2,32.7,138.2,32.7,138.2,32.8
				C138.2,32.7,138.2,32.7,138.2,32.8z M138.2,32.7C138.2,32.7,138.2,32.7,138.2,32.7C138.2,32.7,138.2,32.7,138.2,32.7z
				 M138.2,32.7C138.2,32.7,138.2,32.7,138.2,32.7C138.2,32.7,138.2,32.7,138.2,32.7z M138.2,32.7C138.2,32.7,138.2,32.7,138.2,32.7
				C138.2,32.7,138.2,32.7,138.2,32.7z M138.2,32.7C138.2,32.7,138.2,32.7,138.2,32.7C138.2,32.7,138.2,32.7,138.2,32.7z
				 M138.2,32.7C138.2,32.7,138.1,32.7,138.2,32.7C138.1,32.7,138.2,32.7,138.2,32.7z M138.1,32.7C138.1,32.7,138.1,32.7,138.1,32.7
				C138.1,32.7,138.1,32.7,138.1,32.7z M138.1,32.7C138.1,32.7,138.1,32.7,138.1,32.7C138.1,32.7,138.1,32.7,138.1,32.7z
				 M138.1,32.7L138.1,32.7C138.1,32.7,138.1,32.7,138.1,32.7C138.1,32.7,138.1,32.7,138.1,32.7z M138.1,32.7
				C138.1,32.7,138.1,32.7,138.1,32.7L138.1,32.7C138.1,32.7,138.1,32.7,138.1,32.7z M147.6,28.6L147.6,28.6L147.6,28.6z
				 M147.6,28.6c0,0,0-0.1-0.1-0.2C147.6,28.6,147.6,28.6,147.6,28.6z M147.5,28.5C147.5,28.5,147.5,28.4,147.5,28.5
				C147.5,28.4,147.5,28.5,147.5,28.5z M147.5,28.4C147.5,28.4,147.5,28.4,147.5,28.4C147.5,28.4,147.5,28.4,147.5,28.4z
				 M147.5,28.4C147.5,28.4,147.5,28.4,147.5,28.4C147.5,28.4,147.5,28.4,147.5,28.4z M147.5,28.4C147.5,28.4,147.5,28.4,147.5,28.4
				C147.5,28.4,147.5,28.4,147.5,28.4z M147.5,28.4C147.5,28.4,147.5,28.4,147.5,28.4C147.5,28.4,147.5,28.4,147.5,28.4z
				 M147.5,28.4C147.5,28.4,147.5,28.4,147.5,28.4C147.5,28.4,147.5,28.4,147.5,28.4z M147.5,28.4C147.5,28.4,147.5,28.4,147.5,28.4
				C147.5,28.4,147.5,28.4,147.5,28.4z M147.5,28.4C147.5,28.4,147.5,28.4,147.5,28.4C147.5,28.4,147.5,28.4,147.5,28.4z
				 M147.5,28.4C147.5,28.4,147.5,28.4,147.5,28.4C147.5,28.4,147.5,28.4,147.5,28.4z M147.5,28.4L147.5,28.4L147.5,28.4z
				 M147.5,28.4C147.5,28.4,147.5,28.4,147.5,28.4C147.5,28.4,147.5,28.4,147.5,28.4z M147.5,28.4C147.5,28.3,147.5,28.3,147.5,28.4
				C147.5,28.3,147.5,28.3,147.5,28.4z M147.5,28.3C147.5,28.3,147.5,28.3,147.5,28.3C147.5,28.3,147.5,28.3,147.5,28.3z
				 M147.5,28.3C147.5,28.3,147.5,28.3,147.5,28.3C147.5,28.3,147.5,28.3,147.5,28.3z M147.5,28.3C147.5,28.3,147.5,28.3,147.5,28.3
				C147.5,28.3,147.5,28.3,147.5,28.3z M147.5,28.3C147.5,28.3,147.5,28.3,147.5,28.3C147.5,28.3,147.5,28.3,147.5,28.3z
				 M147.5,28.3C147.5,28.3,147.5,28.3,147.5,28.3C147.5,28.3,147.5,28.3,147.5,28.3L147.5,28.3z M140.4,26L140.4,26L140.4,26z
				 M140.4,26c0,0,0.2-0.1,0.3-0.1C140.5,25.9,140.4,26,140.4,26z M140.6,25.9C140.6,25.9,140.6,25.9,140.6,25.9
				C140.6,25.9,140.6,25.9,140.6,25.9z M140.6,25.9C140.6,25.9,140.6,25.9,140.6,25.9C140.6,25.9,140.6,25.9,140.6,25.9z
				 M140.6,25.9C140.6,25.9,140.7,25.9,140.6,25.9C140.7,25.9,140.6,25.9,140.6,25.9z M140.7,25.8C140.7,25.8,140.7,25.8,140.7,25.8
				C140.7,25.8,140.7,25.8,140.7,25.8z M140.7,25.8C140.7,25.8,140.7,25.8,140.7,25.8C140.7,25.8,140.7,25.8,140.7,25.8z
				 M140.7,25.8C140.7,25.8,140.7,25.8,140.7,25.8C140.7,25.8,140.7,25.8,140.7,25.8z M140.7,25.8C140.7,25.8,140.7,25.8,140.7,25.8
				C140.7,25.8,140.7,25.8,140.7,25.8C140.7,25.8,140.7,25.8,140.7,25.8z M140.7,25.8C140.7,25.8,140.7,25.8,140.7,25.8
				C140.7,25.8,140.7,25.8,140.7,25.8z M140.7,25.8C140.7,25.8,140.7,25.8,140.7,25.8C140.7,25.8,140.7,25.8,140.7,25.8z M145,35.2
				C145,35.2,145,35.2,145,35.2C145,35.2,145,35.2,145,35.2z M140.7,25.8C140.7,25.8,140.7,25.8,140.7,25.8
				C140.7,25.8,140.7,25.8,140.7,25.8C140.7,25.8,140.7,25.8,140.7,25.8C140.7,25.8,140.7,25.8,140.7,25.8
				C140.7,25.8,140.7,25.8,140.7,25.8C140.7,25.8,140.7,25.8,140.7,25.8c-0.6,0.3-1.1,1.5-0.8,2.5c0,0,0.1,0.4,0.4,1.3
				c-0.8,0.5-1.2,0.7-1.2,0.7c-0.9,0.6-1.4,1.6-1,2.3c0,0,0,0,0,0h0c0,0,0,0,0,0v0c0,0,0,0,0,0c0,0,0,0,0,0c0,0,0,0,0,0v0v0
				c0,0,0,0,0,0c0,0,0,0,0,0c0,0,0,0,0,0l0,0v0c0,0,0,0,0,0l0,0c0,0,0,0,0,0c0,0,0,0,0,0c0,0,0,0,0,0c0,0,0,0,0,0c0,0,0,0,0,0
				c0,0,0,0,0,0c0,0,0,0,0,0c0,0,0,0,0,0c0.3,0.6,1.5,1.1,2.5,0.8c0,0,0.4-0.1,1.3-0.4c0.5,0.8,0.7,1.2,0.7,1.2
				c0.6,0.9,1.6,1.3,2.4,1c-0.2,0.1-0.3,0.1-0.3,0.1c0,0,0.2-0.1,0.3-0.1c0,0,0,0,0,0h0h0c0,0,0,0,0,0c0,0,0,0,0,0c0,0,0,0,0,0
				c0,0,0,0,0,0c0,0,0,0,0,0h0h0h0h0c0,0,0,0,0,0v0c0,0,0,0,0,0c0,0,0,0,0,0c0.5-0.2,1-1.4,0.7-2.4c0,0-0.1-0.4-0.4-1.3
				c0.8-0.5,1.2-0.7,1.2-0.7c0.9-0.6,1.3-1.6,1-2.4v0c-0.2-0.5-1.4-1-2.4-0.7c0,0-0.4,0.1-1.3,0.4c-0.5-0.8-0.7-1.2-0.7-1.2
				c-0.4-0.7-1.2-1.1-1.8-1.1C141,25.7,140.9,25.8,140.7,25.8z"/>
		</defs>
		<clipPath id="SVGID_12_">
			<use xlink:href="#SVGID_203_"  overflow="visible"/>
		</clipPath>
		<g clip-path="url(#SVGID_12_)">
			<defs>
				<rect id="SVGID_205_" x="-145.9" y="-192.6" width="489.5" height="870.3"/>
			</defs>
			<clipPath id="SVGID_14_">
				<use xlink:href="#SVGID_205_"  overflow="visible"/>
			</clipPath>
			<g clip-path="url(#SVGID_14_)" enable-background="new    ">
				<g>
					<defs>
						<rect id="SVGID_207_" x="126.1" y="14" width="33.3" height="33.3"/>
					</defs>
					<clipPath id="SVGID_16_">
						<use xlink:href="#SVGID_207_"  overflow="visible"/>
					</clipPath>
					<g clip-path="url(#SVGID_16_)">
						<defs>
							<rect id="SVGID_209_" x="126.6" y="14.2" width="32.5" height="32.6"/>
						</defs>
						<clipPath id="SVGID_18_">
							<use xlink:href="#SVGID_209_"  overflow="visible"/>
						</clipPath>
						<g clip-path="url(#SVGID_18_)">
							<defs>
								<rect id="SVGID_211_" x="137.6" y="25.6" width="10.2" height="10.2"/>
							</defs>
							<clipPath id="SVGID_20_">
								<use xlink:href="#SVGID_211_"  overflow="visible"/>
							</clipPath>
							<rect x="123.2" y="10.8" clip-path="url(#SVGID_20_)" fill="#EDD6CF" width="39.3" height="39.4"/>
						</g>
					</g>
				</g>
			</g>
		</g>
	</g>
	<g>
		<defs>
			<path id="SVGID_213_" d="M113.8,165.3c-0.7,0.2-1.7-0.1-2.7-0.4c-1.2-0.3-2.2-0.7-2.5-0.2c-0.5,1,2.8,2.9,3.2,4.4
				c0.4,1.4-1.5,4.5-0.7,5c0.9,0.5,2.9-2.7,4.2-3.1c0.8-0.2,1.9,0.1,2.8,0.4c1.1,0.3,2.1,0.7,2.3,0.2c0.5-0.9-2.7-2.6-3.1-4.2
				c-0.4-1.4,1.5-4.7,0.6-5.2c-0.1,0-0.1-0.1-0.2-0.1C116.9,162.2,115.2,164.9,113.8,165.3z"/>
		</defs>
		<clipPath id="SVGID_22_">
			<use xlink:href="#SVGID_213_"  overflow="visible"/>
		</clipPath>
		<g clip-path="url(#SVGID_22_)">
			<defs>
				<rect id="SVGID_215_" x="-145.9" y="-192.6" width="489.5" height="870.3"/>
			</defs>
			<clipPath id="SVGID_24_">
				<use xlink:href="#SVGID_215_"  overflow="visible"/>
			</clipPath>
			<g clip-path="url(#SVGID_24_)" enable-background="new    ">
				<g>
					<defs>
						<rect id="SVGID_217_" x="100.2" y="154.1" width="28.6" height="28.6"/>
					</defs>
					<clipPath id="SVGID_26_">
						<use xlink:href="#SVGID_217_"  overflow="visible"/>
					</clipPath>
					<g clip-path="url(#SVGID_26_)">
						<defs>
							<rect id="SVGID_219_" x="100.6" y="154.2" width="28" height="28.1"/>
						</defs>
						<clipPath id="SVGID_28_">
							<use xlink:href="#SVGID_219_"  overflow="visible"/>
						</clipPath>
						<g clip-path="url(#SVGID_28_)">
							<defs>
								<rect id="SVGID_221_" x="107.7" y="161.6" width="13.6" height="12.9"/>
							</defs>
							<clipPath id="SVGID_30_">
								<use xlink:href="#SVGID_221_"  overflow="visible"/>
							</clipPath>
							<rect x="97.2" y="150.8" clip-path="url(#SVGID_30_)" fill="#EAE2C5" width="34.8" height="34.9"/>
						</g>
					</g>
				</g>
			</g>
		</g>
	</g>
	<g>
		<defs>
			<circle id="SVGID_223_" cx="50.9" cy="38.6" r="2.6"/>
		</defs>
		<clipPath id="SVGID_32_">
			<use xlink:href="#SVGID_223_"  overflow="visible"/>
		</clipPath>
		<g clip-path="url(#SVGID_32_)">
			<defs>
				<rect id="SVGID_225_" x="-145.9" y="-192.6" width="489.5" height="870.3"/>
			</defs>
			<clipPath id="SVGID_34_">
				<use xlink:href="#SVGID_225_"  overflow="visible"/>
			</clipPath>
			<g clip-path="url(#SVGID_34_)" enable-background="new    ">
				<g>
					<defs>
						<rect id="SVGID_227_" x="38.2" y="26.3" width="25.2" height="24.5"/>
					</defs>
					<clipPath id="SVGID_36_">
						<use xlink:href="#SVGID_227_"  overflow="visible"/>
					</clipPath>
					<g clip-path="url(#SVGID_36_)">
						<defs>
							<rect id="SVGID_229_" x="38.7" y="26.4" width="24.3" height="24.3"/>
						</defs>
						<clipPath id="SVGID_38_">
							<use xlink:href="#SVGID_229_"  overflow="visible"/>
						</clipPath>
						<g clip-path="url(#SVGID_38_)">
							<defs>
								<rect id="SVGID_231_" x="47.7" y="35.8" width="6.1" height="5.4"/>
							</defs>
							<clipPath id="SVGID_40_">
								<use xlink:href="#SVGID_231_"  overflow="visible"/>
							</clipPath>
							<rect x="35.3" y="23" clip-path="url(#SVGID_40_)" fill="#EAE2C5" width="21.1" height="31.1"/>
						</g>
					</g>
				</g>
			</g>
		</g>
	</g>
	<g>
		<defs>
			<circle id="SVGID_233_" cx="61.8" cy="155.8" r="2.1"/>
		</defs>
		<clipPath id="SVGID_42_">
			<use xlink:href="#SVGID_233_"  overflow="visible"/>
		</clipPath>
		<g clip-path="url(#SVGID_42_)">
			<defs>
				<rect id="SVGID_235_" x="-145.9" y="-192.6" width="489.5" height="870.3"/>
			</defs>
			<clipPath id="SVGID_44_">
				<use xlink:href="#SVGID_235_"  overflow="visible"/>
			</clipPath>
			<g clip-path="url(#SVGID_44_)" enable-background="new    ">
				<g>
					<defs>
						<rect id="SVGID_237_" x="51.1" y="145.3" width="11.8" height="21.1"/>
					</defs>
					<clipPath id="SVGID_46_">
						<use xlink:href="#SVGID_237_"  overflow="visible"/>
					</clipPath>
					<g clip-path="url(#SVGID_46_)">
						<defs>
							<rect id="SVGID_239_" x="51.4" y="145.3" width="10.9" height="20.9"/>
						</defs>
						<clipPath id="SVGID_48_">
							<use xlink:href="#SVGID_239_"  overflow="visible"/>
						</clipPath>
						<g clip-path="url(#SVGID_48_)">
							<defs>
								<rect id="SVGID_241_" x="59.2" y="153.4" width="4.8" height="4.8"/>
							</defs>
							<clipPath id="SVGID_50_">
								<use xlink:href="#SVGID_241_"  overflow="visible"/>
							</clipPath>
							<rect x="48" y="141.9" clip-path="url(#SVGID_50_)" fill="#F5DFDD" width="17.7" height="27.7"/>
						</g>
					</g>
				</g>
			</g>
		</g>
	</g>
	<g>
		<defs>
			<path id="SVGID_243_" d="M140.4,158.1c-1.6,0.1-2.8,1.6-2.7,3.2c0.1,1.6,1.6,2.8,3.2,2.7c1.6-0.1,2.8-1.6,2.7-3.2
				c-0.1-1.5-1.4-2.7-2.9-2.7C140.6,158,140.5,158,140.4,158.1z"/>
		</defs>
		<clipPath id="SVGID_52_">
			<use xlink:href="#SVGID_243_"  overflow="visible"/>
		</clipPath>
		<g clip-path="url(#SVGID_52_)">
			<defs>
				<rect id="SVGID_245_" x="-145.9" y="-192.6" width="489.5" height="870.3"/>
			</defs>
			<clipPath id="SVGID_54_">
				<use xlink:href="#SVGID_245_"  overflow="visible"/>
			</clipPath>
			<g clip-path="url(#SVGID_54_)" enable-background="new    ">
				<g>
					<defs>
						<rect id="SVGID_247_" x="129.5" y="149.3" width="23.8" height="23.8"/>
					</defs>
					<clipPath id="SVGID_56_">
						<use xlink:href="#SVGID_247_"  overflow="visible"/>
					</clipPath>
					<g clip-path="url(#SVGID_56_)">
						<defs>
							<rect id="SVGID_249_" x="129.5" y="149.8" width="23.1" height="23.2"/>
						</defs>
						<clipPath id="SVGID_58_">
							<use xlink:href="#SVGID_249_"  overflow="visible"/>
						</clipPath>
						<g clip-path="url(#SVGID_58_)">
							<defs>
								<rect id="SVGID_251_" x="137.6" y="157.5" width="6.8" height="6.8"/>
							</defs>
							<clipPath id="SVGID_60_">
								<use xlink:href="#SVGID_251_"  overflow="visible"/>
							</clipPath>
							<rect x="126.1" y="146.4" clip-path="url(#SVGID_60_)" fill="#EAE2C5" width="29.9" height="30"/>
						</g>
					</g>
				</g>
			</g>
		</g>
	</g>
	<ellipse fill="none" stroke="#EAE2C5" stroke-width="1.188" stroke-miterlimit="10" cx="24.5" cy="65" rx="5.3" ry="5.3"/>
	<ellipse fill="none" stroke="#EAE2C5" stroke-width="1.188" stroke-miterlimit="10" cx="167.6" cy="73.1" rx="3.2" ry="3.2"/>
	<g>
		<defs>
			<path id="SVGID_253_" d="M116.4,77.3c0-9.1-7.3-16.4-16.4-16.4c-9.1,0-16.4,7.4-16.4,16.4c0,9.1,7.3,16.4,16.4,16.4
				C109.1,93.8,116.4,86.4,116.4,77.3z M140.9,80c0,24.6-32,59.7-40.8,68.9c0,0-0.1,0.1-0.1,0.1c0,0-0.1-0.1-0.1-0.1
				c-8.8-9.2-40.8-44.2-40.8-68.9c0-22.8,18.3-41.4,40.8-41.5h0.1C122.6,38.6,140.9,57.2,140.9,80z"/>
		</defs>
		<clipPath id="SVGID_62_">
			<use xlink:href="#SVGID_253_"  overflow="visible"/>
		</clipPath>
		<g clip-path="url(#SVGID_62_)">
			<defs>
				<rect id="SVGID_255_" x="-142.6" y="-192.6" width="489.5" height="870.3"/>
			</defs>
			<clipPath id="SVGID_64_">
				<use xlink:href="#SVGID_255_"  overflow="visible"/>
			</clipPath>
			<rect x="55.7" y="35.2" clip-path="url(#SVGID_64_)" fill="#F5DFDD" width="88.6" height="117.2"/>
		</g>
	</g>
	<g>
		<defs>
			<path id="SVGID_257_" d="M147.1,115.1c0.9-0.9,0.9-2.5,0-3.4c-0.9-0.9-2.5-0.9-3.4,0l-9,9c-0.5,0.3-0.8,0.7-1,1.2
				c-0.1,0.3-0.2,0.7-0.2,1c0,0.6,0.2,1.3,0.7,1.8l9.3,9.3c0.5,0.5,1.1,0.7,1.7,0.7c0.6,0,1.2-0.2,1.7-0.7c0.9-0.9,1-2.5,0-3.4
				l-5.2-5.3h19.2c1,0,1.7,0.8,1.7,1.7v15.4c0,2-1.6,3.6-3.6,3.6h-39c-2,0-3.6-1.6-3.6-3.6v-39.1c0-2,1.6-3.6,3.6-3.6h39
				c2,0,3.6,1.6,3.6,3.6v15.4c0,1-0.8,1.7-1.7,1.7h-19L147.1,115.1z"/>
		</defs>
		<clipPath id="SVGID_66_">
			<use xlink:href="#SVGID_257_"  overflow="visible"/>
		</clipPath>
		<g clip-path="url(#SVGID_66_)">
			<defs>
				<rect id="SVGID_259_" x="-139.9" y="-192.6" width="489.5" height="870.3"/>
			</defs>
			<clipPath id="SVGID_68_">
				<use xlink:href="#SVGID_259_"  overflow="visible"/>
			</clipPath>
			<rect x="113" y="96.4" clip-path="url(#SVGID_68_)" fill="#F39A99" width="52.9" height="53"/>
		</g>
	</g>
</g>
</svg>
